<?xml version="1.0" standalone="no"?>
<!DOCTYPE svg PUBLIC "-//W3C//DTD SVG 20010904//EN"
 "http://www.w3.org/TR/2001/REC-SVG-20010904/DTD/svg10.dtd">
<svg version="1.0" xmlns="http://www.w3.org/2000/svg"
 width="512.000000pt" height="512.000000pt" viewBox="0 0 512.000000 512.000000"
 preserveAspectRatio="xMidYMid meet">
<metadata>
Created by potrace 1.11, written by Peter Selinger 2001-2013
</metadata>
<g transform="translate(0.000000,512.000000) scale(0.100000,-0.100000)"
fill="#000000" stroke="none">
<path d="M0 2560 l0 -2560 2560 0 2560 0 0 2560 0 2560 -2560 0 -2560 0 0
-2560z m3639 1669 c84 -15 114 -43 131 -122 14 -70 2 -165 -35 -264 -43 -115
-36 -112 -162 -70 -295 97 -575 135 -1059 144 l-311 6 -6 -134 c-4 -74 -8
-336 -9 -584 l-3 -450 605 -5 605 -5 11 -50 c7 -27 13 -84 13 -126 1 -62 -3
-81 -18 -100 l-19 -24 -599 -5 -598 -5 3 -480 c1 -264 5 -551 9 -638 l6 -157
193 0 c227 0 215 7 222 -125 4 -76 3 -81 -23 -105 l-27 -25 -598 -3 c-685 -3
-611 -15 -630 99 -21 129 11 159 177 159 l103 0 7 28 c11 36 10 2716 0 2765
l-8 37 -128 0 -128 0 -14 48 c-29 105 -11 184 45 195 11 2 507 5 1100 6 769 1
1098 -2 1145 -10z"/>
</g>
</svg>
